<svg width="104" height="102" viewBox="0 0 104 102" fill="none" xmlns="http://www.w3.org/2000/svg">
<path d="M87.0504 42.2019C87.0504 45.175 84.7827 47.504 82.2126 47.504H77.3748L77.4806 73.9648C77.5109 79.8285 73.172 84.5855 67.805 84.5855H19.3664C14.0297 84.5855 9.69075 79.845 9.69075 74.0144V47.504H4.83782C2.11654 47.504 0 45.1915 0 42.2019C0 40.7153 0.453545 39.3939 1.51182 38.2377L40.2748 1.32139C41.3331 0.165174 42.5425 0 43.6008 0C44.6591 0 45.8685 0.330347 46.7756 1.15622L62.8916 16.633V10.5711C62.8916 7.64754 65.0535 5.28556 67.7294 5.28556H72.5672C75.2431 5.28556 77.405 7.64754 77.405 10.5711V30.5571L85.3874 38.2212C86.5969 39.3774 87.2016 40.6988 87.0504 42.1854V42.2019ZM37.4931 31.7134C35.4824 31.7134 33.8647 33.4807 33.8647 35.6775V48.8914C33.8647 51.0882 35.4824 52.8556 37.4931 52.8556H49.5876C51.5983 52.8556 53.216 51.0882 53.216 48.8914V35.6775C53.216 33.4807 51.5983 31.7134 49.5876 31.7134H37.4931Z" fill="#D0D0D0"/>
<path d="M82.9872 53.1368C75.7576 53.7104 69.3481 58.4502 66.7813 65.1221C65.7485 67.809 65.4144 69.9222 65.5359 72.8808C65.7941 79.1452 68.4368 85.0775 74.1173 92.1418C76.3196 94.874 82.972 101.38 84.1263 101.908C84.3086 101.999 84.6276 102.029 84.8402 101.969C85.6756 101.757 91.8724 95.9608 94.1354 93.274C100.621 85.5756 103.659 78.8131 103.659 72.0657C103.659 69.4996 103.34 67.6278 102.535 65.4693C99.588 57.4841 91.599 52.4424 82.9872 53.1368ZM86.2831 65.2881C89.3359 66.058 91.6142 68.8958 91.6142 71.9601C91.6142 73.9677 90.7636 75.8847 89.3056 77.198C85.7971 80.3528 80.3141 79.2961 78.294 75.0696C76.9575 72.277 77.4891 69.2732 79.7066 67.0844C81.4228 65.3636 83.8833 64.6994 86.2831 65.2881Z" fill="#44998A"/>
</svg>
