<svg width="128" height="103" viewBox="0 0 128 103" fill="none" xmlns="http://www.w3.org/2000/svg">
<path d="M0.790123 57.6842C0.284444 58.1583 0 58.822 0 59.4225C0 60.023 0.284444 60.6867 0.790123 61.1608C1.45383 61.8561 1.83309 61.9509 4.04543 61.9509C7.20592 61.9509 8.21728 61.3188 8.21728 59.4225C8.21728 57.5262 7.20592 56.8941 4.04543 56.8941C1.83309 56.8941 1.45383 56.9889 0.790123 57.6842Z" fill="#A1A1A1"/>
<path d="M13.9694 57.3998C12.958 58.0951 12.5788 59.2329 12.9896 60.2758C13.4953 61.6665 14.159 61.9193 17.0035 61.9509C19.3738 61.9509 19.6899 61.8877 20.3852 61.1608C21.6178 59.9598 21.2385 57.9371 19.6899 57.2418C18.5205 56.7045 14.8227 56.7993 13.9694 57.3998Z" fill="#A1A1A1"/>
<path d="M27.2751 57.1153C26.3585 57.305 25.284 58.664 25.284 59.6437C25.284 60.0546 25.6316 60.7499 26.0741 61.1608C26.7694 61.8877 27.0854 61.9509 29.5506 61.9509C32.6479 61.9509 33.3116 61.6981 33.7541 60.4023C34.1649 59.2013 33.3748 57.4946 32.237 57.1786C31.3521 56.9257 28.3812 56.8941 27.2751 57.1153Z" fill="#A1A1A1"/>
<path d="M39.4745 57.4946C38.4948 58.2848 38.4632 60.1178 39.4429 61.0976C40.075 61.6981 40.4859 61.7929 42.8563 61.7929C45.4479 61.7929 45.6059 61.7613 46.3328 60.908C47.2494 59.8334 47.3126 58.822 46.4276 57.7159C45.8271 56.9257 45.6375 56.8941 42.9827 56.8941C40.7387 56.8941 40.075 57.0206 39.4745 57.4946Z" fill="#A1A1A1"/>
<path d="M51.9901 57.6843C50.9788 58.664 50.9788 59.7702 51.9585 60.908C52.6538 61.6981 52.9383 61.7929 55.2138 61.8877C57.9951 61.9825 59.038 61.6033 59.6701 60.3075C59.9546 59.707 59.9546 59.2645 59.7333 58.6008C59.1644 57.1786 58.5639 56.9257 55.5299 56.8941C53.0015 56.8941 52.6854 56.9573 51.9901 57.6843Z" fill="#A1A1A1"/>
<path d="M64.9481 57.6842C64.4425 58.1583 64.158 58.822 64.158 59.4225C64.158 60.023 64.4425 60.6867 64.9481 61.1608C65.6118 61.8561 65.9911 61.9509 68.2035 61.9509C71.3639 61.9509 72.3753 61.3188 72.3753 59.4225C72.3753 57.5262 71.3639 56.8941 68.2035 56.8941C65.9911 56.8941 65.6118 56.9889 64.9481 57.6842Z" fill="#A1A1A1"/>
<path d="M78.1274 57.3998C77.1161 58.0951 76.7368 59.2329 77.1477 60.2758C77.6533 61.6665 78.317 61.9193 81.1615 61.9509C83.5319 61.9509 83.8479 61.8877 84.5432 61.1608C85.7758 59.9598 85.3965 57.9371 83.8479 57.2418C82.6785 56.7045 78.9807 56.7993 78.1274 57.3998Z" fill="#A1A1A1"/>
<path d="M91.4331 57.1153C90.5165 57.305 89.442 58.664 89.442 59.6437C89.442 60.0546 89.7896 60.7499 90.2321 61.1608C90.9274 61.8877 91.2435 61.9509 93.7086 61.9509C96.8059 61.9509 97.4696 61.6981 97.9121 60.4023C98.323 59.2013 97.5328 57.4946 96.3951 57.1786C95.5101 56.9257 92.5393 56.8941 91.4331 57.1153Z" fill="#A1A1A1"/>
<path d="M103.095 57.9371C102.147 58.9485 102.179 60.3707 103.19 61.3188C104.265 62.3302 108.026 62.6146 109.574 61.7929C111.313 60.8448 111.407 58.7588 109.701 57.7475C109.037 57.3682 108.089 57.2102 106.287 57.2102C104.075 57.2102 103.696 57.305 103.095 57.9371Z" fill="#A1A1A1"/>
<path d="M115.2 61.4769C113.778 62.8991 114.252 64.2265 117.001 66.3756C118.866 67.8611 120.067 68.0191 121.205 66.8497C122.153 65.9332 122.248 64.511 121.458 63.5944C119.056 60.7816 116.654 59.9914 115.2 61.4769Z" fill="#A1A1A1"/>
<path d="M122.722 71.306C122.027 72.0013 121.932 72.2857 122.121 73.4235C122.627 77.1529 123.48 78.3855 125.44 78.3855C126.42 78.3855 126.831 78.1959 127.336 77.5638C127.716 77.0897 128 76.3628 128 75.9519C128 74.6561 127.02 71.7169 126.388 71.0848C125.503 70.1998 123.733 70.2946 122.722 71.306Z" fill="#A1A1A1"/>
<path d="M123.322 83.3475C122.501 84.0428 121.363 87.0137 121.363 88.4043C121.363 90.3954 124.018 91.4383 125.566 89.9845C126.578 89.068 127.779 85.7179 127.494 84.5801C127.083 82.905 124.681 82.2097 123.322 83.3475Z" fill="#A1A1A1"/>
<path d="M115.358 94.2512C112.988 95.8314 112.419 96.8744 113.177 98.2334C113.43 98.7075 114.062 99.2764 114.568 99.5292C115.421 99.9401 115.611 99.9085 117.16 99.0867C119.024 98.107 120.731 96.3687 120.731 95.4522C120.731 94.5672 119.435 93.2714 118.36 93.0502C117.57 92.8922 117.001 93.145 115.358 94.2512Z" fill="#A1A1A1"/>
<path d="M76.1047 97.7909C74.6192 98.8971 74.8405 101.173 76.4839 101.994C77.4637 102.5 80.9402 102.532 81.9516 102.058C83.5002 101.362 83.8795 99.3396 82.6469 98.1386C81.9516 97.4117 81.6355 97.3485 79.2652 97.3485C77.6217 97.3801 76.4523 97.5065 76.1047 97.7909Z" fill="#A1A1A1"/>
<path d="M88.7783 97.6645C88.4938 97.8225 88.0829 98.3914 87.8617 98.9287C87.356 100.13 87.8617 101.52 88.9995 102.058C90.0425 102.532 93.835 102.5 94.8148 101.994C96.4583 101.173 96.6795 98.8971 95.1941 97.7909C94.562 97.2852 89.5684 97.222 88.7783 97.6645Z" fill="#A1A1A1"/>
<path d="M101.167 98.1702C99.9032 99.7504 100.599 101.773 102.558 102.279C103 102.374 104.296 102.405 105.466 102.342C107.172 102.247 107.646 102.089 108.12 101.489C108.942 100.477 108.879 98.8971 107.994 98.0438C107.362 97.4433 106.888 97.3485 104.549 97.3485C101.958 97.3485 101.768 97.4117 101.167 98.1702Z" fill="#A1A1A1"/>
<path d="M64.3339 0.133354C49.2899 1.33434 35.9526 11.2583 30.6114 25.2277C28.4623 30.8534 27.767 35.278 28.0198 41.4726C28.5571 54.5887 34.0563 67.0094 45.8766 81.8005C50.4593 87.521 64.3023 101.143 66.7042 102.249C67.0835 102.439 67.7472 102.502 68.1897 102.375C69.9279 101.933 82.8228 89.7966 87.5319 84.1709C101.027 68.0524 107.348 53.8934 107.348 39.7659C107.348 34.3931 106.684 30.4741 105.009 25.9546C98.8781 9.23558 82.2539 -1.32047 64.3339 0.133354ZM71.1921 25.5753C77.5447 27.1872 82.2855 33.1289 82.2855 39.5447C82.2855 43.7482 80.5156 47.762 77.4815 50.5116C70.1808 57.1171 58.7714 54.9047 54.5679 46.0553C51.7867 40.2084 52.8929 33.919 57.5072 29.3363C61.0786 25.7334 66.1986 24.3427 71.1921 25.5753Z" fill="#44998A"/>
<path d="M68.5827 0.791054C72.1857 1.77081 77.8114 4.39401 81.3511 6.73278C92.8237 14.4444 99.4607 27.6869 98.8286 41.6562C98.2598 54.1718 92.5709 67.3195 81.7304 81.036C77.8746 85.9348 73.1654 91.118 68.4879 95.5743L64 99.8725L65.2642 100.979C66.9709 102.527 67.7926 102.78 68.8356 102.243C70.2262 101.516 78.5699 93.9308 82.7417 89.5693C90.3269 81.6681 97.28 72.1234 101.42 63.9061C104.138 58.4701 106.382 51.3274 107.141 45.5753C107.994 39.3175 107.078 31.1634 104.928 25.6325C102.337 18.9007 97.2484 12.2952 91.3067 7.87056C84.8909 3.09821 75.441 -0.0622787 67.7926 0.000930786H65.5802L68.5827 0.791054Z" fill="#10826E"/>
</svg>
