<svg width="23" height="21" viewBox="0 0 23 21" fill="none" xmlns="http://www.w3.org/2000/svg">
<path d="M2.02922 0.159643C1.27277 0.399788 0.708427 0.904093 0.336203 1.64854L0 2.33295V10.0776V17.8223L0.336203 18.5187C0.708427 19.2752 1.34481 19.7915 2.1613 20.0316C2.50951 20.1397 5.10308 20.1637 11.7671 20.1397L20.8926 20.1037L21.3849 19.8395C22.0213 19.5033 22.6697 18.7468 22.8498 18.1345C23.0419 17.5101 23.0539 2.66916 22.8618 1.98474C22.7897 1.72058 22.4896 1.26431 22.1894 0.940113C21.2648 -0.0444794 21.7091 -0.00845718 11.4789 0.00354958C4.50271 0.00354958 2.41345 0.0395718 2.02922 0.159643ZM4.28658 9.62135C4.3226 13.4877 4.3226 13.4997 4.62279 14.016C5.17512 14.9886 5.39125 15.0606 8.36904 15.0966C10.1101 15.1207 11.0587 15.0966 11.2148 15.0006C11.563 14.8205 11.575 13.98 11.2388 13.7999C11.0947 13.7278 10.0501 13.6798 8.68123 13.6798C5.69143 13.6798 5.82351 13.7518 5.82351 12.0228V10.738L6.95219 10.774C8.35704 10.8221 8.58517 10.726 8.58517 10.0776C8.58517 9.46525 8.38105 9.35719 7.24036 9.35719C5.84752 9.35719 5.82351 9.32116 5.82351 7.36399V5.75502H13.328H20.8205L20.8566 11.5425C20.8806 14.8085 20.8446 17.4501 20.7845 17.5821C20.7245 17.7142 20.6164 17.8583 20.5444 17.9063C20.4723 17.9544 16.4019 18.0024 11.5029 18.0024C2.73765 18.0024 2.58156 18.0024 2.34141 17.7623C2.11327 17.5341 2.10127 17.366 2.10127 11.7226C2.10127 8.52869 2.13729 5.87509 2.18532 5.83907C2.22134 5.79104 2.71364 5.75502 3.25396 5.75502H4.25056L4.28658 9.62135Z" fill="#10826E"/>
<path d="M10.4223 8.7328C10.1942 8.87689 10.0261 9.45324 10.0261 10.0776C10.0261 10.702 10.1942 11.2783 10.4223 11.4224C10.5064 11.4705 12.2714 11.5185 14.3607 11.5185C18.9594 11.5185 18.7313 11.5905 18.7313 10.1016C18.7313 8.54069 19.0075 8.63675 14.4207 8.63675C12.2954 8.63675 10.5064 8.68477 10.4223 8.7328Z" fill="#10826E"/>
<path d="M13.5441 13.0434C13.0879 13.1395 13.0158 13.3556 13.0518 14.4723C13.0999 15.8891 13.0158 15.8531 16.0056 15.8171C18.7673 15.7811 18.6712 15.8291 18.6712 14.4002C18.6712 12.9714 18.7553 13.0194 16.0657 12.9954C14.8289 12.9954 13.6882 13.0074 13.5441 13.0434Z" fill="#10826E"/>
</svg>
