<svg width="28" height="26" viewBox="0 0 28 26" fill="none" xmlns="http://www.w3.org/2000/svg">
<path d="M10.0625 2.6H17.9375C18.1781 2.6 18.375 2.795 18.375 3.03333V5.2H9.625V3.03333C9.625 2.795 9.82187 2.6 10.0625 2.6ZM7 3.03333V5.2H3.5C1.56953 5.2 0 6.75458 0 8.66667V13.8667H10.5H17.5H28V8.66667C28 6.75458 26.4305 5.2 24.5 5.2H21V3.03333C21 1.35958 19.6273 0 17.9375 0H10.0625C8.37266 0 7 1.35958 7 3.03333ZM28 15.6H17.5V17.3333C17.5 18.2921 16.718 19.0667 15.75 19.0667H12.25C11.282 19.0667 10.5 18.2921 10.5 17.3333V15.6H0V22.5333C0 24.4454 1.56953 26 3.5 26H24.5C26.4305 26 28 24.4454 28 22.5333V15.6Z" fill="#44998A"/>
</svg>
