<svg width="19" height="29" viewBox="0 0 19 29" fill="none" xmlns="http://www.w3.org/2000/svg">
<path d="M6.6475 2.71875C6.6475 1.99769 6.94772 1.30617 7.48211 0.796303C8.0165 0.286439 8.74129 0 9.49703 0C10.2528 0 10.9776 0.286439 11.512 0.796303C12.0463 1.30617 12.3466 1.99769 12.3466 2.71875C12.3466 3.43981 12.0463 4.13133 11.512 4.6412C10.9776 5.15106 10.2528 5.4375 9.49703 5.4375C8.74129 5.4375 8.0165 5.15106 7.48211 4.6412C6.94772 4.13133 6.6475 3.43981 6.6475 2.71875ZM9.02211 19.9375V27.1875C9.02211 28.19 8.17319 29 7.12242 29C6.07165 29 5.22273 28.19 5.22273 27.1875V14.551L3.52488 17.2471C2.98466 18.1023 1.81516 18.3799 0.918748 17.8645C0.0223318 17.349 -0.268558 16.2332 0.271666 15.3779L3.73266 9.88379C4.76562 8.24687 6.61782 7.24434 8.61843 7.24434H10.3816C12.3822 7.24434 14.2344 8.24687 15.2673 9.88379L18.7283 15.3779C19.2686 16.2332 18.9777 17.349 18.0813 17.8645C17.1848 18.3799 16.0153 18.1023 15.4751 17.2471L13.7713 14.551V27.1875C13.7713 28.19 12.9224 29 11.8716 29C10.8209 29 9.97195 28.19 9.97195 27.1875V19.9375H9.02211Z" fill="#44998A"/>
</svg>
