<svg width="29" height="28" viewBox="0 0 29 28" fill="none" xmlns="http://www.w3.org/2000/svg">
<path d="M15.0834 2.64141L13.1689 4.025C12.8631 4.24375 12.6875 4.59375 12.6875 4.96016V5.45781C12.6875 5.82969 12.999 6.13047 13.3842 6.13047C13.5201 6.13047 13.6561 6.09219 13.7693 6.01562L16.1369 4.48984C16.2502 4.41875 16.3861 4.375 16.5221 4.375H16.5787C16.9299 4.375 17.2188 4.65391 17.2188 4.99297C17.2188 5.15703 17.1508 5.31563 17.0318 5.43047L15.9047 6.51875C15.5762 6.83594 15.174 7.07656 14.7322 7.21875L13.2312 7.7C12.9027 7.80391 12.6875 8.09922 12.6875 8.43281C12.6875 8.63516 12.6025 8.83203 12.4553 8.97969L11.4414 9.95859C11.0789 10.3086 10.8807 10.7789 10.8807 11.2711V11.5063C10.8807 12.4031 11.651 13.1305 12.5742 13.1305C13.1973 13.1305 13.775 12.7914 14.0525 12.2555L14.2791 11.8125C14.415 11.55 14.6982 11.3805 15.0041 11.3805C15.259 11.3805 15.4969 11.4953 15.6498 11.6922L16.573 12.8789C16.692 13.0375 16.8846 13.125 17.0885 13.125C17.5643 13.125 17.8758 12.6383 17.6605 12.2281L17.5982 12.1023C17.4 11.7195 17.5982 11.2547 18.023 11.118L19.2238 10.7297C19.6543 10.593 19.9432 10.2047 19.9432 9.76719C19.9432 9.20391 20.4133 8.75 20.9967 8.75H22.6562C23.1547 8.75 23.5625 9.14375 23.5625 9.625C23.5625 10.1062 23.1547 10.5 22.6562 10.5H21.4838C21.076 10.5 20.6795 10.6586 20.3906 10.9375L20.1244 11.1945C20.0055 11.3094 19.9375 11.468 19.9375 11.632C19.9375 11.9711 20.2264 12.25 20.5775 12.25H21.2176C21.5574 12.25 21.8859 12.3813 22.1238 12.6109L22.492 12.9664C22.5939 13.0648 22.6506 13.2016 22.6506 13.3383C22.6506 13.475 22.5939 13.6117 22.492 13.7102L22.0672 14.1203C21.8633 14.3281 21.75 14.5961 21.75 14.875C21.75 15.1539 21.8633 15.4219 22.0729 15.6242L23.1094 16.625C23.6871 17.1828 24.4744 17.5 25.2957 17.5H25.7148C26.083 16.3953 26.2812 15.2195 26.2812 14C26.2812 7.90781 21.3195 2.93125 15.0834 2.64141ZM24.8256 19.4797C24.616 19.3375 24.3611 19.2555 24.0893 19.2555C23.7494 19.2555 23.4209 19.1242 23.183 18.8945L22.4297 18.1562C21.9936 17.7352 21.4102 17.5 20.7928 17.5C20.2434 17.5 19.7053 17.3086 19.2861 16.9641L17.7852 15.7172C17.1281 15.1758 16.2898 14.875 15.4289 14.875H14.2395C13.5258 14.875 12.8234 15.0773 12.2287 15.4602L10.6768 16.4609C9.66855 17.1117 9.0625 18.2055 9.0625 19.3758V19.5508C9.0625 20.4805 9.44199 21.3719 10.1217 22.0281L11.0279 22.9031C11.5094 23.368 12.1607 23.6305 12.8404 23.6305H14.0469C14.8002 23.6305 15.4062 24.2156 15.4062 24.943C15.4062 25.0797 15.4289 25.2164 15.4686 25.3422C19.507 25.025 22.9734 22.7391 24.8256 19.4797ZM0 14C0 10.287 1.52767 6.72601 4.24695 4.1005C6.96623 1.475 10.6544 0 14.5 0C18.3456 0 22.0338 1.475 24.753 4.1005C27.4723 6.72601 29 10.287 29 14C29 17.713 27.4723 21.274 24.753 23.8995C22.0338 26.525 18.3456 28 14.5 28C10.6544 28 6.96623 26.525 4.24695 23.8995C1.52767 21.274 0 17.713 0 14ZM10.6088 5.50703C10.2576 5.16797 9.67988 5.16797 9.32871 5.50703L7.51621 7.25703C7.16504 7.59609 7.16504 8.15391 7.51621 8.49297C7.86738 8.83203 8.44512 8.83203 8.79629 8.49297L10.6088 6.74297C10.96 6.40391 10.96 5.84609 10.6088 5.50703Z" fill="#44998A"/>
</svg>
