<svg width="28" height="25" viewBox="0 0 28 25" fill="none" xmlns="http://www.w3.org/2000/svg">
<path d="M11.9164 4.12388L18.632 10.9766C19.0258 11.3783 19.25 11.9308 19.25 12.5C19.25 13.0692 19.0258 13.6217 18.632 14.0234L11.9164 20.8761C11.5664 21.2333 11.0961 21.4286 10.6039 21.4286C9.58125 21.4286 8.75 20.5804 8.75 19.5368V16.0714H1.75C0.782031 16.0714 0 15.2734 0 14.2857V10.7143C0 9.72656 0.782031 8.92857 1.75 8.92857H8.75V5.46317C8.75 4.41964 9.58125 3.57143 10.6039 3.57143C11.0961 3.57143 11.5664 3.77232 11.9164 4.12388ZM19.25 21.4286H22.75C23.718 21.4286 24.5 20.6306 24.5 19.6429V5.35714C24.5 4.36942 23.718 3.57143 22.75 3.57143H19.25C18.282 3.57143 17.5 2.77344 17.5 1.78571C17.5 0.797991 18.282 0 19.25 0H22.75C25.6484 0 28 2.39955 28 5.35714V19.6429C28 22.6004 25.6484 25 22.75 25H19.25C18.282 25 17.5 24.202 17.5 23.2143C17.5 22.2266 18.282 21.4286 19.25 21.4286Z" fill="#44998A"/>
</svg>
