<svg width="29" height="22" viewBox="0 0 29 22" fill="none" xmlns="http://www.w3.org/2000/svg">
<path d="M3.22222 0C1.44497 0 0 1.40937 0 3.14286V4.71429H29V3.14286C29 1.40937 27.555 0 25.7778 0H3.22222ZM29 9.42857H0V18.8571C0 20.5906 1.44497 22 3.22222 22H25.7778C27.555 22 29 20.5906 29 18.8571V9.42857ZM5.63889 15.7143H8.86111C9.30417 15.7143 9.66667 16.0679 9.66667 16.5C9.66667 16.9321 9.30417 17.2857 8.86111 17.2857H5.63889C5.19583 17.2857 4.83333 16.9321 4.83333 16.5C4.83333 16.0679 5.19583 15.7143 5.63889 15.7143ZM11.2778 16.5C11.2778 16.0679 11.6403 15.7143 12.0833 15.7143H18.5278C18.9708 15.7143 19.3333 16.0679 19.3333 16.5C19.3333 16.9321 18.9708 17.2857 18.5278 17.2857H12.0833C11.6403 17.2857 11.2778 16.9321 11.2778 16.5Z" fill="#44998A"/>
</svg>
