<svg width="29" height="22" viewBox="0 0 29 22" fill="none" xmlns="http://www.w3.org/2000/svg">
<path d="M2.71875 0C1.21777 0 0 1.23177 0 2.75C0 3.6151 0.402148 4.42865 1.0875 4.95L13.4125 14.3C14.0582 14.787 14.9418 14.787 15.5875 14.3L27.9125 4.95C28.5979 4.42865 29 3.6151 29 2.75C29 1.23177 27.7822 0 26.2812 0H2.71875ZM0 6.41667V18.3333C0 20.3557 1.62559 22 3.625 22H25.375C27.3744 22 29 20.3557 29 18.3333V6.41667L16.675 15.7667C15.3836 16.7464 13.6164 16.7464 12.325 15.7667L0 6.41667Z" fill="#44998A"/>
</svg>
