<svg width="25" height="21" viewBox="0 0 25 21" fill="none" xmlns="http://www.w3.org/2000/svg">
<path d="M7.42847 0.305398C7.91183 0.737953 7.95088 1.47184 7.51636 1.953L4.00107 5.84113C3.78625 6.07928 3.48355 6.22022 3.16131 6.22508C2.83908 6.22994 2.53149 6.10844 2.30202 5.88487L0.344205 3.9408C-0.109853 3.48395 -0.109853 2.7452 0.344205 2.28835C0.798262 1.83149 1.54526 1.83149 1.99932 2.28835L3.07831 3.36244L5.76848 0.388021C6.20301 -0.093136 6.94024 -0.132018 7.42359 0.300538L7.42847 0.305398ZM7.42847 8.08167C7.91183 8.51422 7.95088 9.24811 7.51636 9.72927L4.00107 13.6174C3.78625 13.8556 3.48355 13.9965 3.16131 14.0014C2.83908 14.0062 2.53149 13.8847 2.30202 13.6611L0.344205 11.7171C-0.114735 11.2602 -0.114735 10.5215 0.344205 10.0695C0.803144 9.61748 1.54526 9.61262 1.99932 10.0695L3.07831 11.1436L5.76848 8.16915C6.20301 7.688 6.94024 7.64911 7.42359 8.08167H7.42847ZM10.9389 3.11458C10.9389 2.25433 11.637 1.55932 12.5012 1.55932H23.4377C24.3018 1.55932 25 2.25433 25 3.11458C25 3.97483 24.3018 4.66983 23.4377 4.66983H12.5012C11.637 4.66983 10.9389 3.97483 10.9389 3.11458ZM10.9389 10.8908C10.9389 10.0306 11.637 9.33559 12.5012 9.33559H23.4377C24.3018 9.33559 25 10.0306 25 10.8908C25 11.7511 24.3018 12.4461 23.4377 12.4461H12.5012C11.637 12.4461 10.9389 11.7511 10.9389 10.8908ZM7.81418 18.6671C7.81418 17.8069 8.51235 17.1119 9.37653 17.1119H23.4377C24.3018 17.1119 25 17.8069 25 18.6671C25 19.5274 24.3018 20.2224 23.4377 20.2224H9.37653C8.51235 20.2224 7.81418 19.5274 7.81418 18.6671ZM2.34596 16.3342C2.9675 16.3342 3.56359 16.58 4.00308 17.0175C4.44258 17.455 4.68948 18.0484 4.68948 18.6671C4.68948 19.2858 4.44258 19.8792 4.00308 20.3167C3.56359 20.7542 2.9675 21 2.34596 21C1.72442 21 1.12834 20.7542 0.688843 20.3167C0.249347 19.8792 0.00244115 19.2858 0.00244115 18.6671C0.00244115 18.0484 0.249347 17.455 0.688843 17.0175C1.12834 16.58 1.72442 16.3342 2.34596 16.3342Z" fill="#44998A"/>
</svg>
