<svg width="23" height="31" viewBox="0 0 23 31" fill="none" xmlns="http://www.w3.org/2000/svg">
<path d="M2.33217 0.225174C1.51189 0.57902 0.772028 1.31888 0.386014 2.17133L0 2.97552V15.2797V27.5839L0.386014 28.4042C0.82028 29.321 1.73706 30.1734 2.57343 30.3986C2.91119 30.4951 6.59441 30.5594 11.5965 30.5594H20.0406L20.9252 30.1091C21.9867 29.5783 22.614 28.7259 22.8392 27.5196C22.9357 27.0049 23 23.1769 23 18.1587V9.65035H19.0594C14.765 9.65035 14.3469 9.58601 13.7035 8.76573C13.3657 8.33147 13.3497 8.18671 13.3497 4.16573V-1.90735e-06H8.09021C4.1014 0.0160828 2.7021 0.0643349 2.33217 0.225174ZM17.9979 14.4273C18.6413 14.7972 18.9469 15.6979 18.6734 16.3734C18.3839 17.065 10.4706 24.8818 9.92378 25.0105C9.18392 25.2035 8.63706 24.8336 6.36923 22.5175C4.29441 20.4266 4.18182 20.2657 4.18182 19.6545C4.18182 18.7538 4.77692 18.1748 5.70979 18.1748C6.35315 18.1748 6.46573 18.2552 7.96154 19.7189L9.53776 21.2629L12.851 17.9657C14.6685 16.1643 16.3413 14.5559 16.5664 14.4112C17.065 14.0734 17.3867 14.0895 17.9979 14.4273Z" fill="#44998A"/>
<path d="M15.4404 3.77971V7.39859H19.0915H22.7586L19.1397 3.77971C17.1453 1.7853 15.5048 0.160825 15.4887 0.160825C15.4565 0.160825 15.4404 1.7853 15.4404 3.77971Z" fill="#44998A"/>
</svg>
