<svg width="22" height="29" viewBox="0 0 22 29" fill="none" xmlns="http://www.w3.org/2000/svg">
<path d="M3.66667 0C1.64427 0 0 1.62559 0 3.625V25.375C0 27.3744 1.64427 29 3.66667 29H18.3333C20.3557 29 22 27.3744 22 25.375V9.0625H14.6667C13.6526 9.0625 12.8333 8.25254 12.8333 7.25V0H3.66667ZM14.6667 0V7.25H22L14.6667 0ZM6.41667 14.5H15.5833C16.0875 14.5 16.5 14.9078 16.5 15.4062C16.5 15.9047 16.0875 16.3125 15.5833 16.3125H6.41667C5.9125 16.3125 5.5 15.9047 5.5 15.4062C5.5 14.9078 5.9125 14.5 6.41667 14.5ZM6.41667 18.125H15.5833C16.0875 18.125 16.5 18.5328 16.5 19.0312C16.5 19.5297 16.0875 19.9375 15.5833 19.9375H6.41667C5.9125 19.9375 5.5 19.5297 5.5 19.0312C5.5 18.5328 5.9125 18.125 6.41667 18.125ZM6.41667 21.75H15.5833C16.0875 21.75 16.5 22.1578 16.5 22.6562C16.5 23.1547 16.0875 23.5625 15.5833 23.5625H6.41667C5.9125 23.5625 5.5 23.1547 5.5 22.6562C5.5 22.1578 5.9125 21.75 6.41667 21.75Z" fill="#44998A"/>
</svg>
