<svg width="24" height="26" viewBox="0 0 24 26" fill="none" xmlns="http://www.w3.org/2000/svg">
<path d="M12 13C10.1814 13 8.43723 12.3152 7.15127 11.0962C5.8653 9.87721 5.14286 8.22391 5.14286 6.5C5.14286 4.77609 5.8653 3.12279 7.15127 1.90381C8.43723 0.68482 10.1814 0 12 0C13.8186 0 15.5628 0.68482 16.8487 1.90381C18.1347 3.12279 18.8571 4.77609 18.8571 6.5C18.8571 8.22391 18.1347 9.87721 16.8487 11.0962C15.5628 12.3152 13.8186 13 12 13ZM11.2018 18.2406L10.2054 16.6664C9.8625 16.123 10.275 15.4375 10.9393 15.4375H12H13.0554C13.7196 15.4375 14.1321 16.1281 13.7893 16.6664L12.7929 18.2406L14.5821 24.5324L16.5107 17.0727C16.6179 16.6613 17.0357 16.3922 17.4696 16.4988C21.225 17.3926 24 20.6121 24 24.441C24 25.3043 23.2607 26 22.3554 26H15.2946C15.1821 26 15.0804 25.9797 14.9839 25.9441L15 26H9L9.01607 25.9441C8.91964 25.9797 8.8125 26 8.70536 26H1.64464C0.739286 26 0 25.2992 0 24.441C0 20.607 2.78036 17.3875 6.53036 16.4988C6.96429 16.3973 7.38214 16.6664 7.48929 17.0727L9.41786 24.5324L11.2071 18.2406H11.2018Z" fill="#44998A"/>
</svg>
