<svg width="22" height="29" viewBox="0 0 22 29" fill="none" xmlns="http://www.w3.org/2000/svg">
<path d="M12.3578 28.3484C15.2969 24.7026 22 15.8665 22 10.9032C22 4.88373 17.0729 0 11 0C4.92708 0 0 4.88373 0 10.9032C0 15.8665 6.70313 24.7026 9.64219 28.3484C10.3469 29.2172 11.6531 29.2172 12.3578 28.3484ZM11 7.26881C11.9725 7.26881 12.9051 7.65172 13.5927 8.3333C14.2804 9.01489 14.6667 9.93931 14.6667 10.9032C14.6667 11.8671 14.2804 12.7915 13.5927 13.4731C12.9051 14.1547 11.9725 14.5376 11 14.5376C10.0275 14.5376 9.09491 14.1547 8.40728 13.4731C7.71964 12.7915 7.33333 11.8671 7.33333 10.9032C7.33333 9.93931 7.71964 9.01489 8.40728 8.3333C9.09491 7.65172 10.0275 7.26881 11 7.26881Z" fill="#44998A"/>
</svg>
