<svg width="17" height="29" viewBox="0 0 17 29" fill="none" xmlns="http://www.w3.org/2000/svg">
<path d="M0 8.15625C0 5.99308 0.895533 3.9185 2.48959 2.38891C4.08365 0.859317 6.24566 0 8.5 0C10.7543 0 12.9163 0.859317 14.5104 2.38891C16.1045 3.9185 17 5.99308 17 8.15625C17 10.3194 16.1045 12.394 14.5104 13.9236C12.9163 15.4532 10.7543 16.3125 8.5 16.3125C6.24566 16.3125 4.08365 15.4532 2.48959 13.9236C0.895533 12.394 0 10.3194 0 8.15625ZM8.5 4.53125C9.01944 4.53125 9.44444 4.12344 9.44444 3.625C9.44444 3.12656 9.01944 2.71875 8.5 2.71875C5.37153 2.71875 2.83333 5.1543 2.83333 8.15625C2.83333 8.65469 3.25833 9.0625 3.77778 9.0625C4.29722 9.0625 4.72222 8.65469 4.72222 8.15625C4.72222 6.15684 6.41632 4.53125 8.5 4.53125ZM6.61111 27.1875V17.9607C7.225 18.0684 7.8566 18.125 8.5 18.125C9.1434 18.125 9.775 18.0684 10.3889 17.9607V27.1875C10.3889 28.19 9.54479 29 8.5 29C7.45521 29 6.61111 28.19 6.61111 27.1875Z" fill="#44998A"/>
</svg>
